{
	"asset":{
		"generator":"Khronos glTF Blender I/O v4.1.63",
		"version":"2.0"
	},
	"scene":0,
	"scenes":[
		{
			"name":"Scene",
			"nodes":[
				0,
				1
			]
		}
	],
	"nodes":[
		{
			"mesh":0,
			"name":"Cube",
			"scale":[
				0.25,
				0.25,
				0.25
			],
			"translation":[
				0.38897204399108887,
				0.04319462180137634,
				0
			]
		},
		{
			"mesh":1,
			"name":"Cube.001",
			"scale":[
				0.18435955047607422,
				0.18435955047607422,
				0.18435955047607422
			],
			"translation":[
				-0.31315547227859497,
				0,
				0
			]
		}
	],
	"meshes":[
		{
			"name":"Cube.001",
			"primitives":[
				{
					"attributes":{
						"POSITION":0
					},
					"indices":1
				}
			]
		},
		{
			"name":"Cube.002",
			"primitives":[
				{
					"attributes":{
						"POSITION":2
					},
					"indices":3
				}
			]
		}
	],
	"accessors":[
		{
			"bufferView":0,
			"componentType":5126,
			"count":5,
			"max":[
				1,
				1,
				1
			],
			"min":[
				-1,
				-1,
				-1
			],
			"type":"VEC3"
		},
		{
			"bufferView":1,
			"componentType":5123,
			"count":18,
			"type":"SCALAR"
		},
		{
			"bufferView":2,
			"componentType":5126,
			"count":8,
			"max":[
				1,
				1,
				1
			],
			"min":[
				-1,
				-1,
				-1
			],
			"type":"VEC3"
		},
		{
			"bufferView":3,
			"componentType":5123,
			"count":36,
			"type":"SCALAR"
		}
	],
	"bufferViews":[
		{
			"buffer":0,
			"byteLength":60,
			"byteOffset":0,
			"target":34962
		},
		{
			"buffer":0,
			"byteLength":36,
			"byteOffset":60,
			"target":34963
		},
		{
			"buffer":0,
			"byteLength":96,
			"byteOffset":96,
			"target":34962
		},
		{
			"buffer":0,
			"byteLength":72,
			"byteOffset":192,
			"target":34963
		}
	],
	"buffers":[
		{
			"byteLength":264,
			"uri":"shapes.bin"
		}
	]
}
